<?xml version="1.0" encoding="utf-8"?>
<!-- Generator: Adobe Illustrator 28.0.0, SVG Export Plug-In . SVG Version: 6.00 Build 0)  -->
<svg version="1.1" id="Lager_1" xmlns="http://www.w3.org/2000/svg" xmlns:xlink="http://www.w3.org/1999/xlink" x="0px" y="0px"
	 viewBox="0 0 800 800" style="enable-background:new 0 0 800 800;" xml:space="preserve">
<style type="text/css">
	.st0{fill:#FFFFFF;}
	.st1{fill:#BA1818;}
</style>
<rect width="800" height="800"/>
<g>
	<path class="st0" d="M448.14,111.81v185.3c-2.25,82.38-91.51,111.63-143.67,66.08l-3.59-3.21l-3.6,3.21
		c-34.39,30.03-85.76,28.71-118.2-3.91c-17.61-17.71-24.8-37.75-25.47-62.17v-185.3h52.6v185.3c0,47.92,68.61,45.05,68.61,0.76
		V111.81c18.84,0,33.24,0,52.08,0v186.06c0,44.29,68.61,47.15,68.61-0.76v-185.3H448.14z"/>
	<path class="st0" d="M595.4,376.82H477.09v-52.04h116.18c45.53,0,44.24-68.22,0-68.22c-13.11,0-36.99,0.01-50.05,0.08
		c-40.49,0-68.89-30-72.96-62.91c-5.69-44.89,29.46-81.93,71.88-81.93h118.53v52.12c-1.25,0-118.72,0.01-119.96,0.1l0,0.04
		c-24.36,1.66-25.09,38.61,0,40.32l0,0.04c2.07,0.14,44.3,0.09,52.57,0.08c23.64,0,44.1,8.54,60.84,25.36
		C708.23,284.32,669.28,376,595.4,376.82z"/>
</g>
<g>
	<path class="st0" d="M153.61,401.67H353.3c88.78,2.25,120.3,91.51,71.21,143.67l-3.46,3.59l3.46,3.6
		c32.37,34.39,30.94,85.76-4.22,118.2c-19.08,17.61-40.68,24.8-67,25.47H153.61v-52.6H353.3c51.64,0,48.55-68.61,0.82-68.61H153.61
		c0-18.84,0-33.24,0-52.08h200.51c47.73,0,50.82-68.61-0.82-68.61H153.61V401.67z"/>
</g>
<rect x="477.09" y="371.56" class="st0" width="52.61" height="324.63"/>
<circle class="st1" cx="589.13" cy="665.25" r="30.94"/>
</svg>
